<?xml version="1.0" standalone="no"?>
<!DOCTYPE svg PUBLIC "-//W3C//DTD SVG 20010904//EN"
 "http://www.w3.org/TR/2001/REC-SVG-20010904/DTD/svg10.dtd">
<svg version="1.0" xmlns="http://www.w3.org/2000/svg"
 width="591.000000pt" height="414.000000pt" viewBox="0 0 591.000000 414.000000"
 preserveAspectRatio="xMidYMid meet">

<g transform="translate(0.000000,414.000000) scale(0.100000,-0.100000)"
fill="#000000" stroke="none">
<path d="M1601 3426 c-53 -30 -66 -97 -26 -144 63 -75 175 -34 175 63 0 37
-16 62 -50 80 -35 18 -67 19 -99 1z"/>
<path d="M2637 3320 c-52 -13 -114 -46 -165 -87 -40 -33 -44 -34 -80 -22 -150
50 -336 -39 -414 -199 -33 -66 -33 -69 -32 -202 l1 -135 -40 -25 c-51 -33
-100 -92 -133 -164 -23 -51 -26 -67 -22 -144 4 -101 30 -168 94 -241 l39 -44
0 -111 c0 -105 2 -115 33 -178 66 -134 213 -218 383 -218 44 0 57 -5 115 -50
110 -84 224 -101 342 -50 59 25 133 99 157 156 22 52 25 179 5 198 -8 7 -46
25 -85 39 -151 55 -141 46 -148 128 -3 40 -3 92 0 116 l6 43 115 37 c92 31
116 43 123 61 12 30 12 254 0 284 -6 16 -25 29 -62 42 -30 10 -82 32 -117 47
l-63 28 3 127 3 128 93 32 c50 17 104 39 118 49 l26 17 -4 128 c-2 107 -6 131
-21 148 -44 49 -189 82 -270 62z m161 -90 l42 -19 0 -94 c0 -108 17 -91 -139
-143 -65 -22 -85 -33 -92 -52 -5 -14 -8 -97 -7 -186 l3 -161 40 -20 c22 -12
77 -36 123 -54 l82 -33 0 -93 c0 -62 -4 -96 -12 -102 -7 -6 -58 -25 -113 -43
-55 -18 -106 -37 -112 -43 -18 -14 -18 -332 -1 -344 7 -4 62 -28 123 -53 93
-39 111 -49 113 -70 10 -64 -47 -154 -119 -191 -53 -26 -149 -26 -205 1 -51
25 -118 96 -140 147 -28 65 -31 68 -60 68 -29 0 -29 -1 -27 -54 l3 -54 -58 6
c-33 2 -80 16 -108 30 -58 29 -129 102 -151 155 -19 44 -21 159 -5 217 l12 40
-55 50 c-89 83 -122 190 -92 296 18 61 64 122 109 145 30 16 31 15 69 -25 27
-28 51 -42 81 -48 l43 -9 3 -132 3 -133 52 6 c41 5 64 2 107 -15 30 -11 61
-28 68 -37 13 -18 17 -161 4 -179 -4 -5 -56 -27 -115 -48 -116 -41 -152 -70
-127 -101 7 -8 21 -15 31 -15 24 0 233 67 272 86 l27 15 0 148 c0 175 6 165
-124 210 -108 38 -118 45 -114 85 3 29 7 32 98 62 155 50 141 27 138 227 l-3
172 -79 38 c-70 34 -77 39 -65 55 28 35 115 137 159 185 106 117 215 154 318
107z m-450 -90 c22 0 13 -17 -52 -103 -81 -106 -106 -146 -99 -162 2 -8 41
-28 86 -46 45 -18 88 -37 95 -42 9 -7 12 -40 10 -121 l-3 -111 -80 -27 c-44
-15 -91 -28 -104 -28 -22 0 -23 1 -7 25 19 29 21 80 4 96 -7 6 -38 21 -68 32
-93 37 -124 115 -100 249 15 88 58 152 130 195 56 34 121 54 155 47 11 -2 26
-4 33 -4z"/>
<path d="M3081 3292 c-12 -22 -13 -1245 -2 -1652 l6 -235 113 -3 c134 -3 207
8 281 45 70 34 120 79 168 153 28 45 46 61 68 66 122 26 292 105 402 185 210
154 355 330 481 584 68 137 95 207 152 388 42 136 47 162 30 172 -13 8 -385
-81 -550 -132 -271 -82 -463 -190 -638 -357 -104 -99 -204 -244 -243 -351
l-18 -50 25 -22 c14 -13 30 -23 37 -23 7 0 29 37 50 81 35 74 87 160 122 199
181 206 368 325 669 425 89 30 168 50 404 102 28 7 28 3 -4 -93 -14 -44 -27
-95 -28 -115 -4 -44 -118 -275 -191 -385 -71 -106 -216 -258 -323 -339 -109
-82 -259 -156 -385 -192 l-99 -27 -25 -54 c-32 -69 -82 -118 -151 -150 -48
-22 -71 -25 -161 -26 l-106 -1 0 870 0 870 174 3 c186 3 235 -5 353 -52 103
-42 171 -89 267 -185 86 -87 96 -93 120 -85 49 17 39 46 -46 135 -121 127
-232 193 -399 240 -68 19 -112 22 -311 26 -222 5 -232 4 -242 -15z"/>
<path d="M3569 2992 c-24 -22 -31 -36 -31 -65 0 -101 112 -142 177 -65 23 27
26 39 22 72 -11 84 -104 115 -168 58z"/>
<path d="M3325 2715 c-19 -18 -25 -35 -25 -68 0 -49 18 -72 67 -86 62 -18 133
46 118 106 -17 70 -110 99 -160 48z"/>
<path d="M1833 1355 c-33 -14 -63 -59 -63 -95 0 -29 27 -77 49 -90 11 -5 38
-10 61 -10 58 0 100 42 100 100 0 33 -6 48 -29 71 -16 16 -36 29 -44 29 -9 0
-21 2 -29 5 -7 2 -27 -2 -45 -10z"/>
<path d="M1043 723 l-33 -4 0 -295 0 -294 205 0 205 0 0 39 c0 37 -2 39 -37
45 -21 3 -91 6 -155 6 l-118 0 0 80 0 79 133 3 132 3 3 43 3 42 -135 0 -136 0
0 80 0 80 149 0 149 0 7 36 c3 20 2 41 -3 46 -10 10 -313 20 -369 11z"/>
<path d="M166 712 c-6 -10 -6 -540 1 -564 3 -14 15 -18 49 -18 l44 0 0 198 c0
232 -6 232 109 12 106 -204 111 -204 228 15 48 90 91 165 95 165 4 0 9 -87 10
-192 l3 -193 48 -3 47 -3 0 295 0 296 -53 0 -53 0 -101 -187 c-56 -103 -105
-189 -110 -190 -6 -2 -54 81 -109 184 l-99 188 -52 3 c-28 2 -54 -1 -57 -6z"/>
<path d="M1745 648 c-16 -40 -62 -152 -103 -248 -40 -96 -82 -196 -93 -222
l-19 -48 54 0 53 0 27 60 26 61 136 -3 135 -3 22 -55 22 -55 53 -3 c28 -2 52
0 52 4 0 9 -54 147 -152 387 l-81 197 -52 0 -52 0 -28 -72z m137 -191 c21 -55
37 -106 34 -114 -4 -9 -30 -13 -96 -13 -110 0 -109 -4 -44 151 54 127 46 129
106 -24z"/>
<path d="M2250 425 l0 -295 190 0 190 0 0 45 0 45 -140 0 -140 0 0 250 0 250
-50 0 -50 0 0 -295z"/>
<path d="M3050 424 l0 -296 168 4 c192 4 244 19 282 80 30 50 28 137 -5 176
-14 16 -37 33 -52 37 l-28 7 28 20 c86 63 74 197 -23 246 -40 20 -58 22 -207
22 l-163 0 0 -296z m295 202 c61 -26 72 -80 25 -127 -29 -29 -31 -30 -122 -27
l-93 3 -3 69 c-2 38 -1 75 2 83 7 18 146 18 191 -1z m34 -251 c48 -24 55 -77
17 -122 -24 -27 -26 -28 -133 -28 l-108 0 -3 69 c-2 38 -1 75 2 83 8 19 187
18 225 -2z"/>
<path d="M3687 713 c-2 -5 -2 -137 1 -295 l5 -288 48 0 49 0 0 105 0 106 57
-3 57 -3 64 -102 64 -103 59 0 c69 0 71 -10 -17 126 -30 46 -54 87 -54 91 1 5
19 20 41 36 57 39 79 80 79 150 0 32 -6 70 -14 85 -21 41 -68 81 -107 92 -39
12 -326 14 -332 3z m320 -107 c24 -21 28 -32 28 -76 0 -46 -4 -55 -30 -76 -27
-21 -40 -24 -122 -24 l-93 0 0 100 0 100 94 0 c86 0 98 -2 123 -24z"/>
<path d="M4460 643 c-17 -43 -54 -130 -80 -193 -66 -159 -120 -298 -120 -310
0 -5 22 -10 49 -10 l48 0 26 60 26 60 134 0 135 0 22 -60 22 -60 55 0 c52 0
54 1 47 23 -4 12 -57 144 -118 292 l-111 270 -51 3 -52 3 -32 -78z m136 -184
c23 -63 39 -118 35 -122 -4 -4 -48 -7 -97 -5 -83 3 -89 4 -86 23 7 40 86 225
96 222 5 -2 29 -55 52 -118z"/>
<path d="M4980 425 l0 -295 50 0 50 0 0 295 0 295 -50 0 -50 0 0 -295z"/>
<path d="M5292 428 l3 -293 48 -3 47 -3 0 200 c0 111 4 201 9 201 4 0 53 -57
107 -127 234 -299 210 -273 254 -273 l40 0 0 295 0 295 -50 0 -50 0 -2 -197
-3 -198 -96 120 c-52 66 -121 155 -153 198 l-58 77 -49 0 -49 0 2 -292z"/>
</g>
</svg>
