<svg xmlns="http://www.w3.org/2000/svg" width="591" height="414" viewBox="0 0 591 414" version="1.1"><path d="M 404.314 60.950 C 400.268 63.417, 399 65.818, 399 71.011 C 399 74.240, 399.634 75.788, 401.872 78.026 C 409.604 85.758, 422 81.213, 422 70.646 C 422 61.307, 412.379 56.033, 404.314 60.950 M 160.452 69.406 C 154.474 72.010, 152.207 79.632, 155.510 86.020 C 157.462 89.794, 159.833 91, 165.299 91 C 178.246 91, 181.144 75.217, 169.316 69.125 C 166.514 67.682, 164.245 67.754, 160.452 69.406 M 358.304 111.956 C 353.422 114.933, 351.642 118.293, 352.309 123.271 C 353.558 132.579, 364.154 136.316, 371.360 129.989 C 375.430 126.415, 376.492 123.022, 374.978 118.432 C 372.517 110.978, 364.815 107.986, 358.304 111.956 M 464.500 125.755 C 454.445 127.783, 425.401 135.590, 417.084 138.500 C 397.147 145.476, 380.426 155.339, 366.322 168.442 C 356.028 178.005, 351.133 184.453, 344.954 196.591 C 342.139 202.120, 339.088 206.793, 338.040 207.181 C 334.975 208.315, 331.015 230.280, 332.956 235.385 C 333.874 237.798, 334.406 238, 339.869 238 C 347.392 238, 366.607 233.173, 377.044 228.660 C 395.220 220.802, 413.059 206.801, 422.694 192.832 C 425.476 188.799, 430.311 180.387, 433.440 174.138 C 440.233 160.571, 445.771 154.223, 454.608 149.872 C 461.479 146.490, 461.804 145.984, 465.936 132.252 C 467.904 125.711, 467.768 125.096, 464.500 125.755 M 333.032 140.182 C 326.359 144.712, 326.574 155.146, 333.408 158.389 C 338.909 161, 342.717 160.483, 346.600 156.600 C 349.357 153.843, 350 152.427, 350 149.116 C 350 140.287, 340.357 135.210, 333.032 140.182 M 121.500 187.954 C 117.691 189.529, 114.785 193.725, 114.257 198.411 C 113.789 202.560, 114.039 203.239, 117.194 206.394 C 125.896 215.096, 139.265 209.466, 137.695 197.760 C 136.677 190.170, 128.343 185.124, 121.500 187.954 M 447.400 242.400 C 444.458 245.342, 444.003 246.453, 444.022 250.650 C 444.057 258.147, 448.135 262, 456.034 262 C 461.662 262, 467 256.969, 467 251.665 C 467 246.422, 465.440 243.239, 461.775 241.004 C 456.590 237.843, 451.459 238.341, 447.400 242.400 M 181.597 281.102 C 179.334 282.882, 179.122 283.448, 180.212 284.794 C 180.971 285.731, 181.029 286.102, 180.355 285.698 C 177.738 284.130, 177.958 291.094, 180.609 293.750 C 181.296 294.438, 182.339 295, 182.929 295 C 183.518 295, 184 295.480, 184 296.067 C 184 296.701, 184.864 296.860, 186.125 296.460 C 187.738 295.948, 188.064 296.113, 187.479 297.143 C 186.856 298.237, 186.967 298.258, 188.053 297.250 C 189.101 296.278, 189.133 295.733, 188.200 294.800 C 187.540 294.140, 187.001 292.903, 187.001 292.050 C 187.002 291.014, 187.839 291.472, 189.522 293.429 C 191.457 295.680, 192.315 296.085, 193.221 295.179 C 194.126 294.274, 194.089 294, 193.060 294 C 191.691 294, 189.089 291.186, 189.032 289.643 C 189.014 289.172, 189.661 289.040, 190.468 289.349 C 191.275 289.659, 192.202 289.482, 192.527 288.956 C 192.852 288.430, 192.529 287.993, 191.809 287.985 C 190.750 287.972, 190.756 287.807, 191.835 287.123 C 192.570 286.657, 193.132 285.989, 193.085 285.638 C 192.582 281.877, 193.685 280.857, 194.251 284.561 C 194.414 285.627, 194.874 286.613, 195.273 286.750 C 196.891 287.307, 197.187 286.930, 196.131 285.658 C 195.519 284.920, 195.289 284.044, 195.621 283.712 C 196.610 282.723, 189.715 279.008, 186.885 279.004 C 185.447 279.002, 183.067 279.946, 181.597 281.102 M 182.392 288.154 C 182.273 291.371, 182.276 291.372, 183.846 288.350 C 184.694 286.718, 184.666 286.086, 183.732 285.730 C 182.944 285.429, 182.461 286.303, 182.392 288.154 M 193.215 287.500 C 193.608 287.920, 193.506 289.054, 192.989 290.021 C 192.258 291.386, 192.490 291.895, 194.025 292.296 C 195.218 292.608, 195.753 292.409, 195.373 291.795 C 195.027 291.235, 195.233 290.474, 195.832 290.104 C 196.511 289.684, 196.089 288.925, 194.710 288.084 C 193.495 287.344, 192.822 287.081, 193.215 287.500 M 182.405 293.155 C 181.988 293.829, 182.128 294.039, 182.741 293.660 C 183.318 293.303, 184.073 293.748, 184.419 294.649 C 184.764 295.549, 185.272 296.061, 185.547 295.786 C 186.254 295.079, 184.957 292, 183.952 292 C 183.493 292, 182.797 292.520, 182.405 293.155" stroke="none" fill="#87883e" fill-rule="evenodd"/><path d="M 263.746 81.035 C 258.587 82.320, 250.736 86.415, 246.787 89.880 L 243.500 92.764 236.500 91.312 C 230.276 90.021, 228.789 90.034, 223.087 91.431 C 211.186 94.345, 201.991 101.840, 196.625 113 C 193.612 119.267, 193.500 119.972, 193.500 132.677 L 193.500 145.855 189.464 148.779 C 184.274 152.539, 180.547 157.005, 177.267 163.393 C 175.216 167.389, 174.555 170.349, 174.227 177 C 173.714 187.417, 175.839 193.927, 182.757 203.130 L 187.376 209.274 187.438 219.887 C 187.493 229.233, 187.820 231.183, 190.180 236.218 C 196.952 250.666, 212.579 260, 229.996 260 C 234.312 260, 235.662 260.582, 241.359 264.893 C 249.452 271.019, 253.546 272.452, 263 272.472 C 272.002 272.490, 279.563 269.437, 285.690 263.310 C 291.722 257.278, 294 251.482, 294 242.166 C 294 232.879, 293.703 232.499, 283.500 228.717 C 269.413 223.494, 270.285 224.093, 269.612 219.183 C 268.619 211.939, 268.909 204.497, 270.250 202.806 C 270.938 201.939, 276.529 199.576, 282.677 197.556 L 293.853 193.884 294.556 187.318 C 295.570 177.850, 294.589 162.135, 292.885 160.567 C 292.123 159.866, 286.649 157.372, 280.720 155.024 L 269.940 150.756 270.220 138.632 L 270.500 126.508 276 124.406 C 279.025 123.251, 283.525 121.557, 286 120.643 C 293.808 117.759, 293.500 118.410, 293.500 104.786 C 293.500 98.029, 293.146 91.231, 292.713 89.680 C 291.091 83.865, 273.481 78.610, 263.746 81.035 M 308.250 83.115 C 306.465 84.950, 306.416 272.016, 308.200 273.800 C 309.683 275.283, 327.885 275.416, 336.500 274.007 C 348.607 272.027, 358.881 264.714, 367.240 252.127 C 368.876 249.663, 370.759 248, 371.911 248 C 375.004 248, 390.884 242.125, 398.500 238.162 C 413.924 230.138, 432.676 213.643, 444.726 197.500 C 451.120 188.934, 460.515 172.412, 465.473 161.015 C 470.268 149.993, 480 120.324, 480 116.729 C 480 115.183, 479.338 113.683, 478.516 113.368 C 476.965 112.773, 442.128 121.012, 424 126.262 C 411.176 129.975, 395.550 136.423, 386.350 141.796 C 364.424 154.601, 345.254 174.120, 336.512 192.541 C 332.617 200.749, 332.040 205.431, 334.750 206.839 C 337.954 208.504, 339.869 206.581, 344.951 196.598 C 351.133 184.454, 356.026 178.007, 366.322 168.442 C 386.149 150.022, 407.035 139.950, 445 130.499 C 467.114 124.994, 467.599 124.928, 467.154 127.500 C 465.896 134.759, 458.443 153.445, 450.810 168.474 C 432.639 204.253, 404.220 229.080, 370.310 238.798 L 360.500 241.609 357.749 247.014 C 351.491 259.306, 343.552 263.932, 327.289 264.762 L 317 265.287 317 178.539 L 317 91.791 336.750 92.245 C 354.641 92.656, 357.159 92.934, 363.500 95.205 C 378.272 100.495, 388.949 107.560, 398.488 118.358 C 401.715 122.011, 405.075 125, 405.955 125 C 408.480 125, 412 122.074, 412 119.975 C 412 116.869, 399.801 103.804, 391.620 98.148 C 382.422 91.790, 375.517 88.546, 364.134 85.237 C 356.320 82.966, 353.316 82.685, 332.500 82.279 C 314.611 81.931, 309.222 82.116, 308.250 83.115 M 263.698 91.444 C 257.130 93.787, 252.089 98.064, 241.875 109.962 L 231.970 121.500 239.224 124.828 C 243.214 126.659, 246.814 128.684, 247.224 129.328 C 247.634 129.973, 247.976 138.211, 247.985 147.636 L 248 164.772 244.750 166.297 C 242.963 167.136, 238.125 168.824, 234 170.049 C 225.031 172.714, 223.806 173.560, 224.199 176.823 C 224.463 179.010, 225.798 179.795, 235 183.180 C 240.775 185.304, 246.063 187.793, 246.750 188.712 C 247.617 189.871, 248 194.870, 248 205.036 C 248 217.747, 247.768 219.892, 246.250 221.210 C 245.287 222.045, 238.555 224.643, 231.289 226.983 C 215.758 231.984, 213 231.906, 213 226.465 C 213 222.475, 213.306 222.282, 228.500 216.734 L 237.500 213.447 237.789 204.705 L 238.078 195.963 233.289 193.777 C 229.872 192.217, 226.495 191.578, 221.500 191.546 L 214.500 191.500 214.221 178.250 C 213.957 165.735, 213.830 165, 211.931 165 C 208.828 165, 202.438 161.372, 200.249 158.367 L 198.280 155.664 194.779 157.828 C 187.688 162.210, 183.129 172.630, 184.363 181.635 C 185.357 188.886, 188.523 194.725, 194.486 200.306 C 199.903 205.376, 200.011 205.583, 199.018 208.993 C 198.458 210.915, 198.004 216.090, 198.009 220.493 C 198.018 227.510, 198.381 229.132, 200.951 233.612 C 205.903 242.246, 214.158 247.748, 223.628 248.725 L 229 249.280 228.393 244.851 C 227.683 239.671, 229.261 237.667, 233.648 238.178 C 235.959 238.447, 236.707 239.313, 238.171 243.420 C 240.526 250.025, 244.562 254.834, 251.038 258.750 C 255.678 261.556, 257.324 262, 263.093 262 C 268.971 262, 270.356 261.609, 274.615 258.750 C 280.237 254.976, 283.960 249.051, 283.984 243.843 L 284 240.186 272.079 235.449 C 263.033 231.855, 260.022 230.205, 259.593 228.606 C 259.282 227.448, 259.021 219.949, 259.014 211.941 C 259.003 201.059, 259.352 196.901, 260.393 195.478 C 261.194 194.381, 266.394 192.036, 272.643 189.952 L 283.500 186.332 283.500 177.017 L 283.500 167.702 273 163.340 C 267.225 160.940, 261.663 157.972, 260.640 156.742 C 258.953 154.715, 258.816 152.953, 259.164 137.780 C 259.431 126.155, 259.931 120.663, 260.803 119.776 C 261.494 119.074, 266.651 116.921, 272.264 114.990 C 282.431 111.493, 282.472 111.466, 283.070 107.782 C 283.401 105.748, 283.467 101.618, 283.217 98.603 C 282.778 93.310, 282.629 93.069, 278.861 91.561 C 274.130 89.668, 268.792 89.627, 263.698 91.444 M 225.734 101.088 C 216.991 103.148, 208.755 109.863, 205.543 117.551 C 203.344 122.815, 202.575 132.737, 203.968 137.895 C 205.408 143.226, 208.168 145.850, 215.170 148.546 C 221.426 150.956, 223.177 154.043, 221.223 159.220 C 220.570 160.951, 220.235 162.569, 220.480 162.814 C 220.725 163.058, 224.782 162.057, 229.495 160.587 L 238.065 157.915 237.782 146.880 L 237.500 135.844 228.500 132.166 C 216.415 127.228, 216.375 126.713, 226.965 112.424 C 233.854 103.129, 234.775 101.436, 233.267 100.839 C 231.062 99.967, 230.398 99.989, 225.734 101.088 M 182.465 277.952 C 178.374 279.610, 176.754 282.800, 176.661 289.380 C 176.583 294.948, 181.196 299, 187.616 299 C 191.496 299, 192.722 298.478, 195.600 295.600 C 200.330 290.870, 200.101 284.101, 195.040 279.040 C 192.884 276.884, 186.469 276.329, 182.465 277.952 M 181.597 281.102 C 179.334 282.882, 179.122 283.448, 180.212 284.794 C 180.971 285.731, 181.029 286.102, 180.355 285.698 C 177.738 284.130, 177.958 291.094, 180.609 293.750 C 181.296 294.438, 182.339 295, 182.929 295 C 183.518 295, 184 295.480, 184 296.067 C 184 296.701, 184.864 296.860, 186.125 296.460 C 187.738 295.948, 188.064 296.113, 187.479 297.143 C 186.856 298.237, 186.967 298.258, 188.053 297.250 C 189.101 296.278, 189.133 295.733, 188.200 294.800 C 187.540 294.140, 187.001 292.903, 187.001 292.050 C 187.002 291.014, 187.839 291.472, 189.522 293.429 C 191.457 295.680, 192.315 296.085, 193.221 295.179 C 194.126 294.274, 194.089 294, 193.060 294 C 191.691 294, 189.089 291.186, 189.032 289.643 C 189.014 289.172, 189.661 289.040, 190.468 289.349 C 191.275 289.659, 192.202 289.482, 192.527 288.956 C 192.852 288.430, 192.529 287.993, 191.809 287.985 C 190.750 287.972, 190.756 287.807, 191.835 287.123 C 192.570 286.657, 193.132 285.989, 193.085 285.638 C 192.582 281.877, 193.685 280.857, 194.251 284.561 C 194.414 285.627, 194.874 286.613, 195.273 286.750 C 196.891 287.307, 197.187 286.930, 196.131 285.658 C 195.519 284.920, 195.289 284.044, 195.621 283.712 C 196.610 282.723, 189.715 279.008, 186.885 279.004 C 185.447 279.002, 183.067 279.946, 181.597 281.102 M 182.392 288.154 C 182.273 291.371, 182.276 291.372, 183.846 288.350 C 184.694 286.718, 184.666 286.086, 183.732 285.730 C 182.944 285.429, 182.461 286.303, 182.392 288.154 M 193.215 287.500 C 193.608 287.920, 193.506 289.054, 192.989 290.021 C 192.258 291.386, 192.490 291.895, 194.025 292.296 C 195.218 292.608, 195.753 292.409, 195.373 291.795 C 195.027 291.235, 195.233 290.474, 195.832 290.104 C 196.511 289.684, 196.089 288.925, 194.710 288.084 C 193.495 287.344, 192.822 287.081, 193.215 287.500 M 182.405 293.155 C 181.988 293.829, 182.128 294.039, 182.741 293.660 C 183.318 293.303, 184.073 293.748, 184.419 294.649 C 184.764 295.549, 185.272 296.061, 185.547 295.786 C 186.254 295.079, 184.957 292, 183.952 292 C 183.493 292, 182.797 292.520, 182.405 293.155 M 15.656 342.455 C 14.645 345.088, 15.031 398.189, 16.074 400.139 C 16.834 401.558, 18.213 402, 21.882 402 L 26.694 402 27.328 390.925 C 27.677 384.833, 27.716 376.396, 27.416 372.175 C 26.766 363.020, 26.518 362.767, 36.500 381.420 L 43.500 394.500 47.660 394.803 L 51.820 395.106 60.160 379.613 L 68.500 364.120 69 382.810 L 69.500 401.500 75 401.500 L 80.500 401.500 80.765 371.250 L 81.029 341 74.968 341 C 69.390 341, 68.786 341.219, 67.392 343.750 C 66.559 345.262, 62.115 353.463, 57.517 361.974 C 52.918 370.485, 48.761 377.580, 48.278 377.741 C 47.794 377.902, 43.429 370.489, 38.577 361.267 C 33.725 352.045, 29.066 343.712, 28.223 342.750 C 26.229 340.474, 16.504 340.246, 15.656 342.455 M 100.235 371.250 L 100.500 401.500 121.638 401.770 L 142.777 402.039 143.155 398.770 C 143.889 392.433, 143.777 392.353, 133.205 391.653 C 127.867 391.300, 120.912 391.008, 117.750 391.005 L 112 391 112 384 L 112 377 124.378 377 C 138.372 377, 139.328 376.557, 138.815 370.320 L 138.500 366.500 125.207 366.221 L 111.914 365.941 112.207 358.721 L 112.500 351.500 123.500 351.394 C 142.481 351.211, 141.886 351.301, 142.589 348.500 C 142.934 347.125, 142.934 344.875, 142.589 343.500 L 141.962 341 120.966 341 L 99.971 341 100.235 371.250 M 176.702 341.703 C 176.441 342.141, 173.275 349.700, 169.665 358.500 C 166.056 367.300, 160.638 380.335, 157.626 387.466 C 154.614 394.598, 152.367 400.785, 152.634 401.216 C 152.900 401.647, 155.604 402, 158.643 402 L 164.169 402 166.820 396 L 169.472 390 182.657 390 L 195.841 390 196.454 392.790 C 196.791 394.325, 197.945 397.025, 199.019 398.790 C 200.794 401.709, 201.420 402, 205.926 402 C 208.652 402, 211.132 401.596, 211.437 401.101 C 212.091 400.043, 205.911 383.468, 195.739 359 L 188.464 341.500 182.820 341.203 C 179.716 341.039, 176.963 341.264, 176.702 341.703 M 224.473 342.210 C 224.196 342.933, 224.088 356.569, 224.234 372.512 L 224.500 401.500 244 401.500 L 263.500 401.500 263.500 396.500 L 263.500 391.500 249.767 391.222 L 236.035 390.944 235.767 366.222 L 235.500 341.500 230.239 341.197 C 226.586 340.987, 224.823 341.297, 224.473 342.210 M 304.453 342.262 C 304.187 342.956, 304.088 356.569, 304.234 372.512 L 304.500 401.500 321.500 401.500 C 337.634 401.500, 338.755 401.373, 343.499 399 C 350.791 395.353, 353.276 391.144, 352.791 383.267 C 352.470 378.044, 351.939 376.546, 349.517 374.017 C 347.927 372.358, 345.988 371, 345.209 371 C 344.301 371, 344.889 369.752, 346.847 367.521 C 354.063 359.303, 351.519 347.411, 341.579 342.896 C 338.151 341.340, 334.901 341.040, 321.219 341.022 C 309.016 341.006, 304.816 341.316, 304.453 342.262 M 367.894 341.667 C 367.378 345.718, 368.340 400.691, 368.938 401.310 C 369.369 401.756, 371.921 401.981, 374.610 401.810 L 379.500 401.500 379.785 391.250 L 380.070 381 384.923 381 L 389.775 381 396.174 391.250 L 402.572 401.500 409.286 401.796 C 412.979 401.958, 416 401.704, 416 401.231 C 416 400.757, 413.075 395.772, 409.500 390.151 C 405.925 384.531, 403.012 379.610, 403.027 379.216 C 403.042 378.822, 404.847 377.394, 407.039 376.042 C 417.729 369.446, 417.654 351.435, 406.905 344.316 C 402.715 341.541, 402.400 341.495, 385.326 341.167 C 375.797 340.984, 367.952 341.209, 367.894 341.667 M 448.278 342.250 C 447.746 342.938, 444.775 349.800, 441.676 357.500 C 438.577 365.200, 433.562 377.575, 430.532 385 C 427.501 392.425, 425.016 399.288, 425.011 400.250 C 425.002 401.709, 425.929 402, 430.584 402 L 436.169 402 438.833 395.973 L 441.496 389.945 454.450 390.223 L 467.404 390.500 469.497 396 L 471.589 401.500 476.937 401.807 C 479.879 401.976, 482.706 401.694, 483.220 401.180 C 484.085 400.315, 477.941 384.251, 464.380 351.925 L 459.797 341 454.521 341 C 451.483 341, 448.835 341.530, 448.278 342.250 M 497.235 371.200 L 497.500 401.500 503 401.500 L 508.500 401.500 508.500 371.500 L 508.500 341.500 502.735 341.200 L 496.971 340.899 497.235 371.200 M 528.667 341.667 C 527.834 342.500, 527.777 398.255, 528.607 400.418 C 529.056 401.589, 530.610 402, 534.586 402 L 539.959 402 540.229 382.132 L 540.500 362.263 546.588 369.882 C 549.937 374.072, 555.733 381.550, 559.468 386.500 C 570.227 400.758, 571.769 402.144, 576.491 401.796 L 580.500 401.500 580.500 371.500 L 580.500 341.500 575 341.500 L 569.500 341.500 569 360.270 L 568.500 379.040 553.696 360.020 L 538.892 341 534.113 341 C 531.484 341, 529.033 341.300, 528.667 341.667 M 316 358.597 L 316 366.193 325.397 365.847 C 335.738 365.465, 339 363.890, 339 359.279 C 339 353.202, 334.838 351, 323.351 351 L 316 351 316 358.597 M 384.750 351.805 L 380 352.110 380 361.673 L 380 371.237 388.682 370.513 C 398.096 369.729, 400.287 368.860, 401.929 365.257 C 403.398 362.033, 403.272 359.428, 401.482 355.965 C 399.600 352.327, 394.886 351.154, 384.750 351.805 M 178.122 367.210 C 175.850 372.869, 173.993 378.063, 173.996 378.750 C 173.999 379.652, 176.369 380, 182.500 380 C 187.175 380, 191 379.582, 191 379.071 C 191 378.054, 183.277 357.944, 182.643 357.310 C 182.428 357.095, 180.394 361.550, 178.122 367.210 M 451.035 364.572 C 449.222 368.924, 447.143 374.176, 446.414 376.243 L 445.089 380 454.001 380 L 462.914 380 459.541 370.750 C 457.686 365.663, 455.755 360.410, 455.249 359.079 C 454.413 356.878, 454.030 357.377, 451.035 364.572 M 316 383.500 L 316 391 325.865 391 C 334.331 391, 336.104 390.706, 338.365 388.927 C 340.233 387.458, 340.996 385.930, 340.985 383.677 C 340.955 377.439, 338.065 376, 325.566 376 L 316 376 316 383.500" stroke="none" fill="#050505" fill-rule="evenodd"/></svg>